<?xml version="1.0" encoding="UTF-8" standalone="no"?>
<!-- Generator: Adobe Illustrator 18.1.1, SVG Export Plug-In . SVG Version: 6.00 Build 0)  -->

<svg
   xmlns:dc="http://purl.org/dc/elements/1.1/"
   xmlns:cc="http://creativecommons.org/ns#"
   xmlns:rdf="http://www.w3.org/1999/02/22-rdf-syntax-ns#"
   xmlns:svg="http://www.w3.org/2000/svg"
   xmlns="http://www.w3.org/2000/svg"
   xmlns:sodipodi="http://sodipodi.sourceforge.net/DTD/sodipodi-0.dtd"
   xmlns:inkscape="http://www.inkscape.org/namespaces/inkscape"
   version="1.1"
   id="Capa_1"
   x="0px"
   y="0px"
   viewBox="0 0 32 32"
   style="enable-background:new 0 0 32 32;"
   xml:space="preserve"
   width="512px"
   height="512px"
   sodipodi:docname="temp.svg"
   inkscape:version="0.92.1 r15371"><metadata
     id="metadata45"><rdf:RDF><cc:Work
         rdf:about=""><dc:format>image/svg+xml</dc:format><dc:type
           rdf:resource="http://purl.org/dc/dcmitype/StillImage" /><dc:title></dc:title></cc:Work></rdf:RDF></metadata><defs
     id="defs43" /><sodipodi:namedview
     pagecolor="#ffffff"
     bordercolor="#666666"
     borderopacity="1"
     objecttolerance="10"
     gridtolerance="10"
     guidetolerance="10"
     inkscape:pageopacity="0"
     inkscape:pageshadow="2"
     inkscape:window-width="1920"
     inkscape:window-height="1017"
     id="namedview41"
     showgrid="false"
     inkscape:pagecheckerboard="true"
     inkscape:zoom="0.4609375"
     inkscape:cx="256"
     inkscape:cy="256"
     inkscape:window-x="1912"
     inkscape:window-y="-8"
     inkscape:window-maximized="1"
     inkscape:current-layer="Capa_1" /><g
     id="g8"
     transform="translate(-2.375)"><g
       id="g6"><path
         d="M 20,21.527 V 4.006 C 20,1.793 18.205,0 16,0 13.791,0 12,1.787 12,4.006 v 17.521 c -1.228,1.099 -2,2.696 -2,4.473 0,3.312 2.687,6 6,6 3.312,0 6,-2.688 6,-6 0,-1.777 -0.771,-3.374 -2,-4.473 z M 16,30 c -2.209,0 -4,-1.791 -4,-4 0,-1.48 0.805,-2.773 2,-3.465 V 4.005 C 14,2.897 14.896,2 16,2 c 1.111,0 2,0.897 2,2.005 v 18.53 c 1.195,0.691 2,1.984 2,3.465 0,2.209 -1.791,4 -4,4 z"
         id="path2"
         inkscape:connector-curvature="0"
         style="fill:#ffffff" /><path
         d="M 16.984,23.166 C 16.995,23.111 17,23.055 17,22.997 V 13.003 C 17,12.449 16.557,12 16,12 c -0.553,0 -1,0.456 -1,1.003 v 9.994 c 0,0.058 0.005,0.114 0.014,0.169 C 13.842,23.573 13,24.688 13,26 c 0,1.657 1.343,3 3,3 1.657,0 3,-1.343 3,-3 0,-1.312 -0.842,-2.427 -2.016,-2.834 z"
         id="path4"
         inkscape:connector-curvature="0"
         style="fill:#ffffff" /></g></g><g
     id="g10" /><g
     id="g12" /><g
     id="g14" /><g
     id="g16" /><g
     id="g18" /><g
     id="g20" /><g
     id="g22" /><g
     id="g24" /><g
     id="g26" /><g
     id="g28" /><g
     id="g30" /><g
     id="g32" /><g
     id="g34" /><g
     id="g36" /><g
     id="g38" /></svg>